<svg xmlns="http://www.w3.org/2000/svg" viewBox="0 0 335 131"><path fill-rule="evenodd" d="M49.97 61.486l7.697-30.66h36.04c2.8 0 4.725 1.065 4.025 3.368-.524 1.772-1.75 3.898-5.25 5.671L49.969 61.486zm49.433 38.764h15.849l-7.747 30.223H82.498c-6.165 0-12.152-4.921-13.56-10.719L61.364 88.48 40.232 99.02l-8.1 31.453H.784L33.892.803h89.286c8.275 0 13.382 6.502 11.27 14.407l-8.278 31.628c-1.76 7.03-6.69 12.826-12.502 15.637L89.54 74.423l5.285 22.315c.528 1.932 2.464 3.512 4.578 3.512zm36.116.2h.045l-7.664 30.023h-5.111l7.616-30.022h5.114zm-10.432 0h.257l-7.943 30.023h-5.471l8.015-29.963.017-.06h5.125zm16.164 0h5.172l-7.884 30.023h-5.53l7.886-30.022h.356zm81.151-25.822c5.099 3.336 7.91 11.064 6.502 16.858L221.7 119.76c-1.406 5.794-7.735 10.713-14.063 10.713h-63.285l7.743-30.207h38.143c2.812 0 4.92-1.93 5.447-3.687.703-2.282.176-4.038-2.635-5.97l-50.62-33.716c-5.098-3.338-7.91-11.064-6.504-16.859l7.204-28.45C144.537 5.79 150.69.872 156.841.872l72.575-.069h.047l-.019.069-7.745 30.029-.028.107h-.034l-47.044-.107c-2.812 0-4.921 1.056-5.625 3.864-.702 2.81.353 4.916 3.165 6.674l50.27 33.189zm30.688-43.803h-5.103l7.72-30.022h5.055l-7.672 30.022zm-10.847 0h-5.115L244.87.803h5.033l-7.66 30.022zM239.683.872l-7.91 29.846-.027.107h-5.477l.027-.107L234.064.872l.019-.069h5.476l-.017.069h.141zm26.699-.069l31.429.069-33.372 129.6h-31.782L266.235.873h.13l.017-.069z"/><path fill="currentColor" d="M315.126 3.287V13.3h-2.538V3.287h-4.238V1.05h11.038v2.237h-4.262zm9.147 2.213v7.8h-2.131V1.05h2.119l4.168 7.058 4.064-7.058h2.107V13.3h-2.387V5.581c-.411.835-.99 1.893-1.735 3.176l-1.816 3.083h-.792c-.83-1.414-2.03-3.527-3.597-6.34z"/></svg>